<svg width="162" height="55" viewBox="0 0 162 55" fill="none" xmlns="http://www.w3.org/2000/svg">
<path d="M16.8111 21.6821C16.6918 20.5657 16.1889 19.6963 15.3026 19.0742C14.4247 18.452 13.2827 18.1409 11.8764 18.1409C10.8878 18.1409 10.0398 18.2901 9.33239 18.5884C8.625 18.8867 8.08381 19.2915 7.70881 19.8029C7.33381 20.3142 7.14205 20.898 7.13352 21.5543C7.13352 22.0997 7.2571 22.5728 7.50426 22.9733C7.75994 23.3739 8.10511 23.7148 8.53977 23.996C8.97443 24.2688 9.45597 24.4989 9.98438 24.6864C10.5128 24.8739 11.0455 25.0316 11.5824 25.1594L14.0369 25.773C15.0256 26.0032 15.9759 26.3142 16.8878 26.7063C17.8082 27.0983 18.6307 27.5926 19.3551 28.1892C20.0881 28.7858 20.6676 29.506 21.0938 30.3497C21.5199 31.1935 21.733 32.1821 21.733 33.3157C21.733 34.8497 21.3409 36.2006 20.5568 37.3682C19.7727 38.5273 18.6392 39.435 17.1562 40.0912C15.6818 40.7389 13.8963 41.0628 11.7997 41.0628C9.76278 41.0628 7.99432 40.7475 6.49432 40.1168C5.00284 39.4861 3.83523 38.5657 2.99148 37.3554C2.15625 36.1452 1.70455 34.6708 1.63636 32.9321H6.30256C6.37074 33.8441 6.65199 34.6026 7.14631 35.2077C7.64063 35.8128 8.28409 36.2645 9.0767 36.5628C9.87784 36.8611 10.7727 37.0103 11.7614 37.0103C12.7926 37.0103 13.696 36.8568 14.4716 36.55C15.2557 36.2347 15.8693 35.8 16.3125 35.246C16.7557 34.6835 16.9815 34.0273 16.9901 33.2773C16.9815 32.5955 16.7813 32.033 16.3892 31.5898C15.9972 31.1381 15.4474 30.7631 14.7401 30.4648C14.0412 30.158 13.223 29.8853 12.2855 29.6466L9.30682 28.8796C7.15057 28.3256 5.44602 27.4861 4.19318 26.3611C2.94886 25.2276 2.3267 23.7233 2.3267 21.8483C2.3267 20.3057 2.74432 18.9549 3.57955 17.7958C4.4233 16.6367 5.5696 15.7375 7.01847 15.0983C8.46733 14.4506 10.108 14.1267 11.9403 14.1267C13.7983 14.1267 15.4261 14.4506 16.8239 15.0983C18.2301 15.7375 19.3338 16.6282 20.1349 17.7702C20.9361 18.9037 21.3494 20.2077 21.375 21.6821H16.8111Z" fill="white"/>
<path d="M28.3708 14.4847H33.0754V32.8938C33.0669 34.5813 32.7089 36.0344 32.0015 37.2532C31.2941 38.4634 30.3055 39.3966 29.0356 40.0529C27.7742 40.7006 26.3041 41.0245 24.6251 41.0245C23.091 41.0245 21.7103 40.7517 20.4831 40.2063C19.2643 39.6523 18.297 38.8341 17.5811 37.7517C16.8652 36.6693 16.5072 35.3228 16.5072 33.712H21.2245C21.2331 34.4193 21.3865 35.0287 21.6848 35.5401C21.9916 36.0514 22.4135 36.4435 22.9504 36.7162C23.4873 36.9889 24.1052 37.1253 24.8041 37.1253C25.5626 37.1253 26.2061 36.9676 26.7345 36.6523C27.2629 36.3284 27.6635 35.8512 27.9362 35.2205C28.2174 34.5898 28.3623 33.8142 28.3708 32.8938V14.4847Z" fill="#FC3314"/>
<path d="M51.4545 40.6665H42.5824V14.4847H51.6335C54.233 14.4847 56.4659 15.0088 58.3324 16.0571C60.2074 17.0969 61.6477 18.5926 62.6534 20.5443C63.6591 22.496 64.1619 24.8313 64.1619 27.55C64.1619 30.2773 63.6548 32.621 62.6406 34.5813C61.6349 36.5415 60.1818 38.0458 58.2812 39.0941C56.3892 40.1424 54.1136 40.6665 51.4545 40.6665ZM47.3253 36.5628H51.2244C53.0483 36.5628 54.5696 36.2304 55.7884 35.5657C57.0071 34.8924 57.9233 33.8909 58.5369 32.5614C59.1506 31.2233 59.4574 29.5529 59.4574 27.55C59.4574 25.5472 59.1506 23.8853 58.5369 22.5642C57.9233 21.2347 57.0156 20.2418 55.8139 19.5855C54.6207 18.9208 53.1378 18.5884 51.3651 18.5884H47.3253V36.5628ZM77.157 41.05C75.1882 41.05 73.4879 40.6409 72.0561 39.8228C70.6328 38.996 69.5376 37.8284 68.7706 36.3199C68.0036 34.8029 67.62 33.0174 67.62 30.9634C67.62 28.9435 68.0036 27.1708 68.7706 25.6452C69.5462 24.1111 70.6286 22.9179 72.0178 22.0657C73.407 21.2049 75.0391 20.7745 76.9141 20.7745C78.1243 20.7745 79.2663 20.9705 80.3402 21.3625C81.4226 21.746 82.3771 22.3426 83.2038 23.1523C84.0391 23.962 84.6953 24.9932 85.1726 26.246C85.6499 27.4904 85.8885 28.9733 85.8885 30.6949V32.1139H69.7933V28.9946H81.4524C81.4439 28.1083 81.2521 27.3199 80.8771 26.6296C80.5021 25.9307 79.978 25.381 79.3047 24.9804C78.6399 24.5799 77.8643 24.3796 76.978 24.3796C76.032 24.3796 75.201 24.6097 74.4851 25.0699C73.7692 25.5216 73.2109 26.1182 72.8104 26.8597C72.4183 27.5926 72.218 28.398 72.2095 29.2759V31.9989C72.2095 33.1409 72.4183 34.121 72.8359 34.9392C73.2536 35.7489 73.8374 36.371 74.5874 36.8057C75.3374 37.2318 76.2152 37.4449 77.2209 37.4449C77.8942 37.4449 78.5036 37.3512 79.049 37.1637C79.5945 36.9676 80.0675 36.6821 80.468 36.3071C80.8686 35.9321 81.1712 35.4676 81.3757 34.9137L85.6967 35.3995C85.424 36.5415 84.9041 37.5387 84.1371 38.3909C83.3786 39.2347 82.407 39.8909 81.2223 40.3597C80.0376 40.8199 78.6825 41.05 77.157 41.05ZM105.324 26.2205L101.105 26.6807C100.985 26.2546 100.777 25.854 100.478 25.479C100.189 25.104 99.7965 24.8014 99.3022 24.5713C98.8079 24.3412 98.2028 24.2262 97.4869 24.2262C96.5238 24.2262 95.7141 24.435 95.0579 24.8526C94.4102 25.2702 94.0906 25.8114 94.0991 26.4762C94.0906 27.0472 94.2994 27.5117 94.7255 27.8696C95.1602 28.2276 95.8761 28.5216 96.8732 28.7517L100.223 29.4676C102.081 29.8682 103.461 30.5032 104.365 31.3725C105.277 32.2418 105.737 33.3796 105.745 34.7858C105.737 36.0216 105.375 37.1125 104.659 38.0585C103.951 38.996 102.967 39.729 101.706 40.2574C100.444 40.7858 98.9954 41.05 97.359 41.05C94.9556 41.05 93.021 40.5472 91.555 39.5415C90.0891 38.5273 89.2156 37.1168 88.9343 35.31L93.4471 34.8753C93.6516 35.7617 94.0863 36.4307 94.7511 36.8824C95.4158 37.3341 96.2809 37.56 97.3462 37.56C98.4457 37.56 99.3278 37.3341 99.9925 36.8824C100.666 36.4307 101.002 35.8725 101.002 35.2077C101.002 34.6452 100.785 34.1807 100.35 33.8142C99.9244 33.4478 99.2596 33.1665 98.3562 32.9705L95.0067 32.2674C93.1232 31.8753 91.7298 31.2148 90.8263 30.2858C89.9229 29.3483 89.4755 28.1637 89.484 26.7318C89.4755 25.5216 89.8036 24.4733 90.4684 23.587C91.1417 22.6921 92.0749 22.0017 93.2681 21.5159C94.4698 21.0216 95.8548 20.7745 97.4229 20.7745C99.7241 20.7745 101.535 21.2645 102.856 22.2446C104.186 23.2247 105.008 24.55 105.324 26.2205ZM109.561 40.6665V21.0301H114.189V40.6665H109.561ZM111.888 18.2432C111.155 18.2432 110.525 18.0003 109.996 17.5145C109.468 17.0202 109.203 16.4279 109.203 15.7375C109.203 15.0387 109.468 14.4463 109.996 13.9605C110.525 13.4662 111.155 13.2191 111.888 13.2191C112.63 13.2191 113.26 13.4662 113.78 13.9605C114.309 14.4463 114.573 15.0387 114.573 15.7375C114.573 16.4279 114.309 17.0202 113.78 17.5145C113.26 18.0003 112.63 18.2432 111.888 18.2432ZM127.488 48.4392C125.826 48.4392 124.398 48.2134 123.205 47.7617C122.012 47.3185 121.053 46.7219 120.329 45.9719C119.604 45.2219 119.102 44.3909 118.82 43.479L122.988 42.4691C123.175 42.8526 123.448 43.2318 123.806 43.6068C124.164 43.9904 124.646 44.3057 125.251 44.5529C125.864 44.8085 126.636 44.9364 127.565 44.9364C128.877 44.9364 129.964 44.6168 130.825 43.9776C131.685 43.3469 132.116 42.3071 132.116 40.8583V37.1381H131.886C131.647 37.6154 131.298 38.1054 130.837 38.6083C130.386 39.1111 129.785 39.533 129.035 39.8739C128.293 40.2148 127.36 40.3853 126.235 40.3853C124.727 40.3853 123.359 40.0316 122.131 39.3242C120.913 38.6083 119.941 37.5429 119.217 36.1282C118.501 34.7049 118.143 32.9236 118.143 30.7844C118.143 28.6282 118.501 26.8085 119.217 25.3256C119.941 23.8341 120.917 22.7049 122.144 21.9378C123.371 21.1622 124.739 20.7745 126.248 20.7745C127.398 20.7745 128.344 20.9705 129.086 21.3625C129.836 21.746 130.433 22.2105 130.876 22.756C131.319 23.2929 131.656 23.8 131.886 24.2773H132.141V21.0301H136.705V40.9861C136.705 42.6651 136.305 44.0543 135.504 45.1537C134.702 46.2532 133.607 47.0756 132.218 47.621C130.829 48.1665 129.252 48.4392 127.488 48.4392ZM127.526 36.7546C128.506 36.7546 129.342 36.5159 130.032 36.0387C130.722 35.5614 131.246 34.8753 131.604 33.9804C131.962 33.0855 132.141 32.0117 132.141 30.7588C132.141 29.523 131.962 28.4407 131.604 27.5117C131.255 26.5827 130.735 25.8625 130.045 25.3512C129.363 24.8313 128.523 24.5713 127.526 24.5713C126.495 24.5713 125.634 24.8398 124.944 25.3767C124.254 25.9137 123.734 26.6509 123.384 27.5884C123.035 28.5174 122.86 29.5742 122.86 30.7588C122.86 31.9605 123.035 33.0131 123.384 33.9165C123.742 34.8114 124.266 35.5103 124.957 36.0131C125.656 36.5074 126.512 36.7546 127.526 36.7546ZM146.076 29.1608V40.6665H141.448V21.0301H145.871V24.3668H146.102C146.553 23.2674 147.273 22.3938 148.262 21.746C149.259 21.0983 150.491 20.7745 151.957 20.7745C153.312 20.7745 154.492 21.0642 155.498 21.6438C156.512 22.2233 157.296 23.0628 157.85 24.1622C158.413 25.2617 158.69 26.5955 158.681 28.1637V40.6665H154.053V28.8796C154.053 27.5671 153.712 26.5401 153.031 25.7986C152.357 25.0571 151.424 24.6864 150.231 24.6864C149.421 24.6864 148.701 24.8654 148.07 25.2233C147.448 25.5728 146.958 26.0799 146.6 26.7446C146.251 27.4094 146.076 28.2148 146.076 29.1608Z" fill="#FC3314"/>
</svg>
