<svg width="18" height="19" viewBox="0 0 18 19" fill="none" xmlns="http://www.w3.org/2000/svg">
<path d="M10 5.6665C12.103 5.6665 13 6.5635 13 8.6665H15C15 5.4415 13.225 3.6665 10 3.6665V5.6665ZM13.422 11.1095C13.2299 10.9349 12.9774 10.8417 12.7178 10.8497C12.4583 10.8578 12.212 10.9663 12.031 11.1525L9.63801 13.6135C9.06201 13.5035 7.90401 13.1425 6.71201 11.9535C5.52001 10.7605 5.15901 9.5995 5.05201 9.0275L7.51101 6.6335C7.69742 6.45263 7.80614 6.20632 7.81417 5.94671C7.82219 5.68709 7.72889 5.43454 7.55401 5.2425L3.85901 1.1795C3.68405 0.986855 3.44089 0.870003 3.18116 0.853758C2.92143 0.837514 2.66561 0.923157 2.46801 1.0925L0.298008 2.9535C0.125119 3.12701 0.0219269 3.35795 0.0080073 3.6025C-0.0069927 3.8525 -0.292993 9.7745 4.29901 14.3685C8.30501 18.3735 13.323 18.6665 14.705 18.6665C14.907 18.6665 15.031 18.6605 15.064 18.6585C15.3085 18.6448 15.5393 18.5412 15.712 18.3675L17.572 16.1965C17.7415 15.999 17.8273 15.7433 17.8112 15.4836C17.7952 15.2238 17.6785 14.9806 17.486 14.8055L13.422 11.1095Z" fill="#1F1F1F"/>
</svg>
