<svg width="18" height="22" viewBox="0 0 18 22" fill="none" xmlns="http://www.w3.org/2000/svg">
<path d="M9.00001 0.166504C6.81276 0.169084 4.71584 1.03911 3.16923 2.58572C1.62261 4.13234 0.752589 6.22926 0.750009 8.4165C0.747389 10.2039 1.33124 11.9428 2.41201 13.3665C2.41201 13.3665 2.63701 13.6628 2.67376 13.7055L9.00001 21.1665L15.3293 13.7018C15.3623 13.662 15.588 13.3665 15.588 13.3665L15.5888 13.3643C16.669 11.9412 17.2526 10.2031 17.25 8.4165C17.2474 6.22926 16.3774 4.13234 14.8308 2.58572C13.2842 1.03911 11.1873 0.169084 9.00001 0.166504ZM9.00001 11.4165C8.40666 11.4165 7.82665 11.2406 7.3333 10.9109C6.83995 10.5813 6.45543 10.1127 6.22837 9.56455C6.00131 9.01638 5.9419 8.41318 6.05765 7.83123C6.17341 7.24929 6.45913 6.71474 6.87869 6.29518C7.29825 5.87563 7.83279 5.5899 8.41474 5.47415C8.99668 5.35839 9.59988 5.4178 10.1481 5.64487C10.6962 5.87193 11.1648 6.25645 11.4944 6.74979C11.8241 7.24314 12 7.82316 12 8.4165C11.999 9.21185 11.6826 9.97433 11.1202 10.5367C10.5578 11.0991 9.79535 11.4155 9.00001 11.4165Z" fill="#1F1F1F"/>
</svg>
