<svg width="30" height="31" viewBox="0 0 30 31" fill="none" xmlns="http://www.w3.org/2000/svg">
<rect y="0.666504" width="30" height="30" rx="15" fill="white"/>
<path d="M15 8.1665C10.875 8.1665 7.5 11.5415 7.5 15.6665C7.5 19.7915 10.875 23.1665 15 23.1665C19.125 23.1665 22.5 19.7915 22.5 15.6665C22.5 11.5415 19.125 8.1665 15 8.1665ZM21.1875 15.2915C19.5625 15.0415 18.125 15.0415 16.75 15.229C16.625 14.854 16.4375 14.5415 16.25 14.1665C17.6875 13.5415 18.875 12.6665 19.6875 11.604C20.5625 12.6665 21.125 13.9165 21.1875 15.2915ZM18.75 10.7915C18 11.7915 16.9375 12.5415 15.625 13.104C15 11.9165 14.3125 10.7915 13.5 9.6665C14 9.5415 14.5 9.479 15 9.479C16.4375 9.479 17.75 9.979 18.75 10.7915ZM12.1875 10.1665C13 11.229 13.75 12.354 14.375 13.5415C12.875 13.979 11.0625 14.1665 9 14.229C9.4375 12.4165 10.625 10.979 12.1875 10.1665ZM8.8125 15.6665V15.479C11.1875 15.479 13.3125 15.229 15 14.6665C15.125 14.979 15.3125 15.2915 15.4375 15.5415C13.3125 16.229 11.5625 17.5415 10.25 19.604C9.375 18.5415 8.8125 17.1665 8.8125 15.6665ZM11.1875 20.5415C12.4375 18.604 14 17.354 15.9375 16.7915C16.5 18.2915 16.9375 19.854 17.1875 21.479C15.125 22.229 12.875 21.854 11.1875 20.5415ZM18.4375 20.7915C18.1875 19.2915 17.75 17.854 17.25 16.479C18.4375 16.2915 19.6875 16.354 21.125 16.604C20.8125 18.354 19.875 19.854 18.4375 20.7915Z" fill="#1F1F1F"/>
</svg>
