<svg width="30" height="31" viewBox="0 0 30 31" fill="none" xmlns="http://www.w3.org/2000/svg">
<circle cx="15" cy="15.6665" r="15" fill="white"/>
<path fill-rule="evenodd" clip-rule="evenodd" d="M12.408 7.7115C13.2077 7.67469 13.4627 7.6665 15.5 7.6665C17.5373 7.6665 17.7923 7.67537 18.5914 7.7115C19.3905 7.74764 19.9359 7.87514 20.4132 8.05991C20.913 8.24878 21.3664 8.544 21.7414 8.92582C22.1232 9.30014 22.4177 9.75287 22.6059 10.2533C22.7914 10.7306 22.9182 11.276 22.955 12.0738C22.9918 12.8749 23 13.1299 23 15.1665C23 17.2038 22.9911 17.4588 22.955 18.2585C22.9189 19.0563 22.7914 19.6017 22.6059 20.079C22.4177 20.5795 22.1227 21.033 21.7414 21.4079C21.3664 21.7897 20.913 22.0842 20.4132 22.2724C19.9359 22.4579 19.3905 22.5847 18.5927 22.6215C17.7923 22.6583 17.5373 22.6665 15.5 22.6665C13.4627 22.6665 13.2077 22.6576 12.408 22.6215C11.6102 22.5854 11.0648 22.4579 10.5875 22.2724C10.087 22.0842 9.63351 21.7892 9.25864 21.4079C8.87708 21.0333 8.58181 20.5801 8.39341 20.0797C8.20864 19.6024 8.08182 19.057 8.045 18.2592C8.00818 17.4581 8 17.2031 8 15.1665C8 13.1292 8.00886 12.8742 8.045 12.0751C8.08114 11.276 8.20864 10.7306 8.39341 10.2533C8.58208 9.75292 8.87758 9.29967 9.25932 8.92514C9.63366 8.54366 10.0867 8.2484 10.5868 8.05991C11.0641 7.87514 11.6102 7.74832 12.408 7.7115ZM18.5307 9.0615C17.7398 9.02537 17.5025 9.01787 15.5 9.01787C13.4975 9.01787 13.2602 9.02537 12.4693 9.0615C11.7377 9.09491 11.3409 9.21696 11.0764 9.31991C10.7266 9.45628 10.4764 9.61787 10.2139 9.88037C9.96503 10.1224 9.77353 10.4172 9.65341 10.7429C9.55045 11.0074 9.42841 11.4042 9.395 12.1358C9.35886 12.9267 9.35136 13.164 9.35136 15.1665C9.35136 17.169 9.35886 17.4063 9.395 18.1972C9.42841 18.9288 9.55045 19.3256 9.65341 19.5901C9.77341 19.9154 9.965 20.2106 10.2139 20.4526C10.4559 20.7015 10.7511 20.8931 11.0764 21.0131C11.3409 21.1161 11.7377 21.2381 12.4693 21.2715C13.2602 21.3076 13.4968 21.3151 15.5 21.3151C17.5032 21.3151 17.7398 21.3076 18.5307 21.2715C19.2623 21.2381 19.6591 21.1161 19.9236 21.0131C20.2734 20.8767 20.5236 20.7151 20.7861 20.4526C21.035 20.2106 21.2266 19.9154 21.3466 19.5901C21.4495 19.3256 21.5716 18.9288 21.605 18.1972C21.6411 17.4063 21.6486 17.169 21.6486 15.1665C21.6486 13.164 21.6411 12.9267 21.605 12.1358C21.5716 11.4042 21.4495 11.0074 21.3466 10.7429C21.2102 10.3931 21.0486 10.1429 20.7861 9.88037C20.544 9.63155 20.2493 9.44006 19.9236 9.31991C19.6591 9.21696 19.2623 9.09491 18.5307 9.0615ZM14.542 17.4785C15.077 17.7013 15.6728 17.7313 16.2275 17.5636C16.7821 17.3959 17.2614 17.0408 17.5834 16.5589C17.9053 16.0771 18.05 15.4985 17.9928 14.9218C17.9355 14.3451 17.6798 13.8063 17.2693 13.3972C17.0077 13.1357 16.6913 12.9355 16.343 12.8109C15.9946 12.6864 15.623 12.6406 15.2549 12.6769C14.8867 12.7132 14.5312 12.8307 14.214 13.0209C13.8967 13.2111 13.6255 13.4693 13.42 13.7769C13.2145 14.0844 13.0797 14.4337 13.0254 14.7997C12.971 15.1656 12.9985 15.539 13.1058 15.893C13.2131 16.247 13.3976 16.5728 13.6459 16.847C13.8943 17.1212 14.2003 17.3369 14.542 17.4785ZM12.7741 12.4406C13.1321 12.0826 13.557 11.7987 14.0247 11.6049C14.4925 11.4112 14.9938 11.3115 15.5 11.3115C16.0062 11.3115 16.5075 11.4112 16.9753 11.6049C17.443 11.7987 17.8679 12.0826 18.2259 12.4406C18.5839 12.7986 18.8678 13.2235 19.0616 13.6913C19.2553 14.159 19.355 14.6603 19.355 15.1665C19.355 15.6728 19.2553 16.174 19.0616 16.6418C18.8678 17.1095 18.5839 17.5344 18.2259 17.8924C17.503 18.6154 16.5224 19.0215 15.5 19.0215C14.4776 19.0215 13.497 18.6154 12.7741 17.8924C12.0511 17.1695 11.645 16.1889 11.645 15.1665C11.645 14.1441 12.0511 13.1636 12.7741 12.4406ZM20.21 11.8856C20.2987 11.8019 20.3697 11.7013 20.4188 11.5897C20.468 11.478 20.4942 11.3577 20.496 11.2358C20.4977 11.1138 20.475 10.9928 20.4292 10.8798C20.3833 10.7668 20.3153 10.6641 20.2291 10.5779C20.1428 10.4917 20.0402 10.4236 19.9272 10.3778C19.8142 10.3319 19.6931 10.3092 19.5712 10.311C19.4492 10.3128 19.3289 10.339 19.2173 10.3881C19.1057 10.4372 19.005 10.5083 18.9214 10.597C18.7586 10.7695 18.6695 10.9986 18.673 11.2358C18.6764 11.4729 18.7722 11.6994 18.9399 11.8671C19.1076 12.0348 19.334 12.1305 19.5712 12.134C19.8083 12.1374 20.0375 12.0483 20.21 11.8856Z" fill="#1F1F1F"/>
</svg>
