<svg width="30" height="31" viewBox="0 0 30 31" fill="none" xmlns="http://www.w3.org/2000/svg">
<circle cx="15" cy="15.6665" r="15" fill="white"/>
<path d="M23 11.092C22.4484 11.3263 21.8481 11.4949 21.2298 11.5606C21.8717 11.185 22.3525 10.5917 22.5818 9.89195C21.9794 10.2448 21.3195 10.4923 20.6313 10.6233C20.3437 10.3205 19.9958 10.0793 19.6094 9.91469C19.2229 9.75008 18.8062 9.6656 18.3852 9.66651C16.6816 9.66651 15.3116 11.0263 15.3116 12.6949C15.3116 12.9292 15.3405 13.1636 15.3873 13.389C12.8366 13.2576 10.5616 12.0576 9.04915 10.2204C8.77357 10.6839 8.62916 11.2116 8.63093 11.7488C8.63093 12.7996 9.17354 13.7263 10.001 14.2712C9.51335 14.2523 9.03715 14.1204 8.6111 13.886V13.9233C8.6111 15.3949 9.66747 16.6144 11.0754 16.8949C10.811 16.9625 10.5391 16.9971 10.266 16.9979C10.0659 16.9979 9.87658 16.9783 9.68549 16.9517C10.0749 18.1517 11.2087 19.0233 12.5589 19.0517C11.5026 19.8665 10.1794 20.3458 8.7427 20.3458C8.48492 20.3458 8.24697 20.3369 8 20.3085C9.36282 21.1695 10.9798 21.6665 12.7212 21.6665C18.3744 21.6665 21.4677 17.0547 21.4677 13.0517C21.4677 12.9204 21.4677 12.789 21.4587 12.6576C22.0572 12.2263 22.5818 11.692 23 11.092Z" fill="#1F1F1F"/>
</svg>
